<svg width="282" height="61" viewBox="0 0 282 61" fill="none" xmlns="http://www.w3.org/2000/svg">
<g filter="url(#filter0_d_2_3)">
<path d="M24.32 26.4C24.32 25.0133 24.5733 23.8133 25.08 22.8C25.5867 21.76 26.3067 20.96 27.24 20.4C28.1733 19.8133 29.2933 19.52 30.6 19.52C31.9867 19.52 33.1333 19.8133 34.04 20.4C34.9733 20.96 35.68 21.76 36.16 22.8C36.64 23.8133 36.88 25.0133 36.88 26.4C36.88 27.76 36.6267 28.96 36.12 30C35.6133 31.04 34.8933 31.8533 33.96 32.44C33.0267 33 31.9067 33.28 30.6 33.28C29.2933 33.28 28.1733 33 27.24 32.44C26.3067 31.8533 25.5867 31.04 25.08 30C24.5733 28.96 24.32 27.76 24.32 26.4ZM15 26.4C15 28.64 15.3733 30.6933 16.12 32.56C16.8933 34.4 17.9733 36 19.36 37.36C20.7467 38.72 22.3867 39.76 24.28 40.48C26.2 41.2267 28.3067 41.6 30.6 41.6C32.8933 41.6 34.9867 41.2267 36.88 40.48C38.8 39.76 40.4533 38.72 41.84 37.36C43.2267 36 44.2933 34.4 45.04 32.56C45.8133 30.6933 46.2 28.64 46.2 26.4C46.2 24.16 45.8133 22.1333 45.04 20.32C44.2667 18.5067 43.1733 16.9467 41.76 15.64C40.3467 14.3333 38.6933 13.3333 36.8 12.64C34.9067 11.9467 32.84 11.6 30.6 11.6C28.4133 11.6 26.3733 11.9467 24.48 12.64C22.5867 13.3333 20.9333 14.3333 19.52 15.64C18.1067 16.9467 17 18.5067 16.2 20.32C15.4 22.1333 15 24.16 15 26.4Z" fill="#7559F2"/>
<path d="M68.3938 12.4V25.08L50.1937 11V40.4H58.5938V27.72L76.7938 41.8V12.4H68.3938Z" fill="#7559F2"/>
<path d="M88.4613 40.4H102.581V33.4H88.4613V40.4ZM88.4613 19.4H102.581V12.4H88.4613V19.4ZM88.4613 29.4H101.781V22.6H88.4613V29.4ZM82.3812 12.4V40.4H90.7812V12.4H82.3812Z" fill="#7559F2"/>
<path d="M167.245 12.4V35.84L145.965 11.32V40.4H148.165V17.04L169.445 41.48V12.4H167.245Z" fill="#7559F2"/>
<path d="M128.206 14.7047C128.152 14.7594 128.097 14.8141 128.042 14.8688C127.331 14.7594 126.566 14.65 125.8 14.65C119.019 14.65 113.55 20.1734 113.55 26.9C113.55 33.6813 119.019 39.15 125.8 39.15C132.527 39.15 138.05 33.6813 138.05 26.9C138.05 26.1344 137.941 25.3688 137.831 24.6578C137.886 24.6031 137.941 24.5484 137.995 24.4938L139.253 23.0719C139.581 24.275 139.8 25.5875 139.8 26.9C139.8 34.6656 133.511 40.9 125.8 40.9C118.034 40.9 111.8 34.6656 111.8 26.9C111.8 19.1891 118.034 12.9 125.8 12.9C127.113 12.9 128.37 13.1188 129.628 13.4469L128.206 14.7047ZM126.839 18.6969L127.058 20.0641C126.675 19.9547 126.238 19.9 125.745 19.9C121.917 19.9 118.745 23.0719 118.745 26.9C118.745 30.7828 121.917 33.9 125.745 33.9C129.628 33.9 132.8 30.7828 132.8 26.9C132.8 26.4625 132.745 26.025 132.636 25.6422L134.003 25.8609C134.167 25.8609 134.331 25.9156 134.441 25.9156C134.495 26.2438 134.55 26.5719 134.55 26.9C134.55 31.7672 130.613 35.65 125.8 35.65C120.933 35.65 117.05 31.7672 117.05 26.9C117.05 22.0875 120.933 18.15 125.8 18.15C126.128 18.15 126.456 18.2047 126.784 18.2594C126.784 18.3688 126.839 18.5328 126.839 18.6969ZM130.448 23.5094L126.402 27.5563C126.073 27.8844 125.472 27.8844 125.144 27.5563C124.816 27.2281 124.816 26.6266 125.144 26.2984L129.191 22.2516L128.589 18.4234C128.425 17.4938 128.753 16.6188 129.409 16.0172L132.089 13.6109C132.855 12.9547 133.948 13.2828 134.222 14.2125L135.206 17.4938L138.488 18.4781C139.417 18.7516 139.745 19.8453 139.089 20.5563L136.683 23.2906C136.081 23.9469 135.206 24.275 134.277 24.1109L130.448 23.5094ZM131.98 21.9781L134.605 22.4156C134.878 22.4703 135.206 22.3609 135.37 22.1422L137.339 19.9547L134.769 19.1891L131.98 21.9781ZM133.511 17.9313L132.745 15.3609L130.558 17.3297C130.339 17.4938 130.23 17.8219 130.284 18.0953L130.722 20.7203L133.511 17.9313Z" fill="#7559F2"/>
<path d="M188.32 26.4C188.32 25.0133 188.573 23.8133 189.08 22.8C189.587 21.76 190.307 20.96 191.24 20.4C192.173 19.8133 193.293 19.52 194.6 19.52C195.987 19.52 197.133 19.8133 198.04 20.4C198.973 20.96 199.68 21.76 200.16 22.8C200.64 23.8133 200.88 25.0133 200.88 26.4C200.88 27.76 200.627 28.96 200.12 30C199.613 31.04 198.893 31.8533 197.96 32.44C197.027 33 195.907 33.28 194.6 33.28C193.293 33.28 192.173 33 191.24 32.44C190.307 31.8533 189.587 31.04 189.08 30C188.573 28.96 188.32 27.76 188.32 26.4ZM179 26.4C179 28.64 179.373 30.6933 180.12 32.56C180.893 34.4 181.973 36 183.36 37.36C184.747 38.72 186.387 39.76 188.28 40.48C190.2 41.2267 192.307 41.6 194.6 41.6C196.893 41.6 198.987 41.2267 200.88 40.48C202.8 39.76 204.453 38.72 205.84 37.36C207.227 36 208.293 34.4 209.04 32.56C209.813 30.6933 210.2 28.64 210.2 26.4C210.2 24.16 209.813 22.1333 209.04 20.32C208.267 18.5067 207.173 16.9467 205.76 15.64C204.347 14.3333 202.693 13.3333 200.8 12.64C198.907 11.9467 196.84 11.6 194.6 11.6C192.413 11.6 190.373 11.9467 188.48 12.64C186.587 13.3333 184.933 14.3333 183.52 15.64C182.107 16.9467 181 18.5067 180.2 20.32C179.4 22.1333 179 24.16 179 26.4Z" fill="#7559F2"/>
<path d="M232.394 12.4V25.08L214.194 11V40.4H222.594V27.72L240.794 41.8V12.4H232.394Z" fill="#7559F2"/>
<path d="M252.461 40.4H266.581V33.4H252.461V40.4ZM252.461 19.4H266.581V12.4H252.461V19.4ZM252.461 29.4H265.781V22.6H252.461V29.4ZM246.381 12.4V40.4H254.781V12.4H246.381Z" fill="#7559F2"/>
</g>
<defs>
<filter id="filter0_d_2_3" x="0" y="0" width="281.581" height="60.8" filterUnits="userSpaceOnUse" color-interpolation-filters="sRGB">
<feFlood flood-opacity="0" result="BackgroundImageFix"/>
<feColorMatrix in="SourceAlpha" type="matrix" values="0 0 0 0 0 0 0 0 0 0 0 0 0 0 0 0 0 0 127 0" result="hardAlpha"/>
<feOffset dy="4"/>
<feGaussianBlur stdDeviation="7.5"/>
<feComposite in2="hardAlpha" operator="out"/>
<feColorMatrix type="matrix" values="0 0 0 0 0.458824 0 0 0 0 0.34902 0 0 0 0 0.94902 0 0 0 0.6 0"/>
<feBlend mode="normal" in2="BackgroundImageFix" result="effect1_dropShadow_2_3"/>
<feBlend mode="normal" in="SourceGraphic" in2="effect1_dropShadow_2_3" result="shape"/>
</filter>
</defs>
</svg>