<svg width="252" height="32" viewBox="0 0 252 32" fill="none" xmlns="http://www.w3.org/2000/svg">
<path d="M9.52001 16C9.52001 14.6133 9.77335 13.4133 10.28 12.4C10.7867 11.36 11.5067 10.56 12.44 10C13.3733 9.41334 14.4933 9.12001 15.8 9.12001C17.1867 9.12001 18.3333 9.41334 19.24 10C20.1733 10.56 20.88 11.36 21.36 12.4C21.84 13.4133 22.08 14.6133 22.08 16C22.08 17.36 21.8267 18.56 21.32 19.6C20.8133 20.64 20.0933 21.4533 19.16 22.04C18.2267 22.6 17.1067 22.88 15.8 22.88C14.4933 22.88 13.3733 22.6 12.44 22.04C11.5067 21.4533 10.7867 20.64 10.28 19.6C9.77335 18.56 9.52001 17.36 9.52001 16ZM0.200012 16C0.200012 18.24 0.573346 20.2933 1.32001 22.16C2.09335 24 3.17335 25.6 4.56001 26.96C5.94668 28.32 7.58668 29.36 9.48001 30.08C11.4 30.8267 13.5067 31.2 15.8 31.2C18.0933 31.2 20.1867 30.8267 22.08 30.08C24 29.36 25.6533 28.32 27.04 26.96C28.4267 25.6 29.4933 24 30.24 22.16C31.0133 20.2933 31.4 18.24 31.4 16C31.4 13.76 31.0133 11.7333 30.24 9.92001C29.4667 8.10667 28.3733 6.54667 26.96 5.24001C25.5467 3.93334 23.8933 2.93334 22 2.24001C20.1067 1.54667 18.04 1.20001 15.8 1.20001C13.6133 1.20001 11.5733 1.54667 9.68001 2.24001C7.78668 2.93334 6.13335 3.93334 4.72001 5.24001C3.30668 6.54667 2.20001 8.10667 1.40001 9.92001C0.600012 11.7333 0.200012 13.76 0.200012 16Z" fill="black"/>
<path d="M53.5938 2V14.68L35.3938 0.600006V30H43.7938V17.32L61.9938 31.4V2H53.5938Z" fill="black"/>
<path d="M73.6613 30H87.7813V23H73.6613V30ZM73.6613 9.00001H87.7813V2H73.6613V9.00001ZM73.6613 19H86.9813V12.2H73.6613V19ZM67.5813 2V30H75.9813V2H67.5813Z" fill="black"/>
<path d="M152.445 2V25.44L131.165 0.920004V30H133.365V6.64L154.645 31.08V2H152.445Z" fill="black"/>
<path d="M113.406 4.30469C113.352 4.35938 113.297 4.41407 113.242 4.46876C112.531 4.35938 111.766 4.25001 111 4.25001C104.219 4.25001 98.75 9.77344 98.75 16.5C98.75 23.2813 104.219 28.75 111 28.75C117.727 28.75 123.25 23.2813 123.25 16.5C123.25 15.7344 123.141 14.9688 123.031 14.2578C123.086 14.2031 123.141 14.1484 123.195 14.0938L124.453 12.6719C124.781 13.875 125 15.1875 125 16.5C125 24.2656 118.711 30.5 111 30.5C103.234 30.5 97 24.2656 97 16.5C97 8.78907 103.234 2.50001 111 2.50001C112.313 2.50001 113.57 2.71876 114.828 3.04688L113.406 4.30469ZM112.039 8.29688L112.258 9.66407C111.875 9.55469 111.438 9.50001 110.945 9.50001C107.117 9.50001 103.945 12.6719 103.945 16.5C103.945 20.3828 107.117 23.5 110.945 23.5C114.828 23.5 118 20.3828 118 16.5C118 16.0625 117.945 15.625 117.836 15.2422L119.203 15.4609C119.367 15.4609 119.531 15.5156 119.641 15.5156C119.695 15.8438 119.75 16.1719 119.75 16.5C119.75 21.3672 115.813 25.25 111 25.25C106.133 25.25 102.25 21.3672 102.25 16.5C102.25 11.6875 106.133 7.75001 111 7.75001C111.328 7.75001 111.656 7.80469 111.984 7.85938C111.984 7.96876 112.039 8.13282 112.039 8.29688ZM115.648 13.1094L111.602 17.1563C111.273 17.4844 110.672 17.4844 110.344 17.1563C110.016 16.8281 110.016 16.2266 110.344 15.8984L114.391 11.8516L113.789 8.02344C113.625 7.09376 113.953 6.21876 114.609 5.61719L117.289 3.21094C118.055 2.55469 119.148 2.88282 119.422 3.81251L120.406 7.09376L123.688 8.07813C124.617 8.35157 124.945 9.44532 124.289 10.1563L121.883 12.8906C121.281 13.5469 120.406 13.875 119.477 13.7109L115.648 13.1094ZM117.18 11.5781L119.805 12.0156C120.078 12.0703 120.406 11.9609 120.57 11.7422L122.539 9.55469L119.969 8.78907L117.18 11.5781ZM118.711 7.53126L117.945 4.96094L115.758 6.92969C115.539 7.09376 115.43 7.42188 115.484 7.69532L115.922 10.3203L118.711 7.53126Z" fill="black"/>
<path d="M173.52 16C173.52 14.6133 173.773 13.4133 174.28 12.4C174.787 11.36 175.507 10.56 176.44 10C177.373 9.41334 178.493 9.12001 179.8 9.12001C181.187 9.12001 182.333 9.41334 183.24 10C184.173 10.56 184.88 11.36 185.36 12.4C185.84 13.4133 186.08 14.6133 186.08 16C186.08 17.36 185.827 18.56 185.32 19.6C184.813 20.64 184.093 21.4533 183.16 22.04C182.227 22.6 181.107 22.88 179.8 22.88C178.493 22.88 177.373 22.6 176.44 22.04C175.507 21.4533 174.787 20.64 174.28 19.6C173.773 18.56 173.52 17.36 173.52 16ZM164.2 16C164.2 18.24 164.573 20.2933 165.32 22.16C166.093 24 167.173 25.6 168.56 26.96C169.947 28.32 171.587 29.36 173.48 30.08C175.4 30.8267 177.507 31.2 179.8 31.2C182.093 31.2 184.187 30.8267 186.08 30.08C188 29.36 189.653 28.32 191.04 26.96C192.427 25.6 193.493 24 194.24 22.16C195.013 20.2933 195.4 18.24 195.4 16C195.4 13.76 195.013 11.7333 194.24 9.92001C193.467 8.10667 192.373 6.54667 190.96 5.24001C189.547 3.93334 187.893 2.93334 186 2.24001C184.107 1.54667 182.04 1.20001 179.8 1.20001C177.613 1.20001 175.573 1.54667 173.68 2.24001C171.787 2.93334 170.133 3.93334 168.72 5.24001C167.307 6.54667 166.2 8.10667 165.4 9.92001C164.6 11.7333 164.2 13.76 164.2 16Z" fill="black"/>
<path d="M217.594 2V14.68L199.394 0.600006V30H207.794V17.32L225.994 31.4V2H217.594Z" fill="black"/>
<path d="M237.661 30H251.781V23H237.661V30ZM237.661 9.00001H251.781V2H237.661V9.00001ZM237.661 19H250.981V12.2H237.661V19ZM231.581 2V30H239.981V2H231.581Z" fill="black"/>
</svg>
